Coordinates
version=1
nRows=6
nColumns=107
inDegrees=yes

Units are S.I. units (second, meters, Newtons, ...)
If the header above contains a line with 'inDegrees', this indicates whether rotational values are in degrees (yes) or radians (no).

endheader
time	sternoclavicular_r2	sternoclavicular_r3	unrotscap_r3	unrotscap_r2	acromioclavicular_r2	acromioclavicular_r3	acromioclavicular_r1	unrothum_r1	unrothum_r3	unrothum_r2	elv_angle	shoulder_elv	shoulder1_r2	shoulder_rot	elbow_flexion	pro_sup	deviation	flexion	proximal_distal_r1	proximal_distal_r3	cmc_flexion	cmc_abduction	mp_flexion	ip_flexion	mcp2_flexion	mcp2_abduction	pm2_flexion	md2_flexion	mcp3_flexion	mcp3_abduction	pm3_flexion	md3_flexion	mcp4_flexion	mcp4_abduction	pm4_flexion	md4_flexion	mcp5_flexion	mcp5_abduction	pm5_flexion	md5_flexion	bicpt_tx	bicpt_ty	bicpt_tz	bicpt2_tx	bicpt2_ty	bicpt2_tz	ptpt_tx	ptpt_ty	ptpt_tz	FCUpt_tx	FCUpt_ty	FCUpt_tz	EDCpt_tx	EDCpt_ty	EDCpt_tz	APLpt_tx	APLpt_ty	APLpt_tz	FPLpt_tx	FPLpt_ty	FPLpt_tz	FPLpt2_tx	FPLpt2_ty	FPLpt2_tz	PEC1pt2_tx	PEC1pt2_ty	PEC1pt2_tz	PEC1pt3_tx	PEC1pt3_ty	PEC1pt3_tz	PEC2pt2_tx	PEC2pt2_ty	PEC2pt2_tz	PEC2pt3_tx	PEC2pt3_ty	PEC2pt3_tz	PEC3pt2_tx	PEC3pt2_ty	PEC3pt2_tz	PEC3pt3_tx	PEC3pt3_ty	PEC3pt3_tz	DELT2pt2a_tx	DELT2pt2a_ty	DELT2pt2a_tz	DELT2pt2_tx	DELT2pt2_ty	DELT2pt2_tz	LAT1pt2_tx	LAT1pt2_ty	LAT1pt2_tz	LAT1pt3_tx	LAT1pt3_ty	LAT1pt3_tz	LAT2pt2_tx	LAT2pt2_ty	LAT2pt2_tz	LAT2pt3_tx	LAT2pt3_ty	LAT2pt3_tz	LAT3pt2_tx	LAT3pt2_ty	LAT3pt2_tz	LAT3pt3_tx	LAT3pt3_ty	LAT3pt3_tz
      1.03333333	     -0.31584167	      0.13377563	     -0.13377563	      0.31584167	     -0.06395151	      0.51683364	      0.23231316	     -0.23231316	     -0.51683364	      0.06395151	    100.66757642	     74.77832345	     -1.75698066	    -33.70598041	     31.14629444	     81.02409678	      0.32575403	     -0.59819238	      0.35523847	     -0.29909619	     34.15749077	    -18.06928779	     -7.73687354	      9.05601332	     71.54733949	     13.04682982	     71.44671558	     58.60135929	     73.36289048	      3.98971555	     76.31312107	     46.85830589	     74.08608686	    -12.58260265	     80.32002830	     40.36374527	     76.34000916	    -14.03359514	     86.01498768	      5.46326317	      0.00093022	     -0.03116984	     -0.00487501	      0.01472593	     -0.01866104	     -0.00191080	      0.00156323	     -0.06877114	     -0.00657693	      0.01217021	     -0.18240272	     -0.00004393	     -0.00972287	      0.00330878	     -0.00060415	      0.00031237	      0.00012495	      0.00062474	      0.00039983	      0.00119950	      0.00067472	     -0.00001242	     -0.00020575	     -0.00024691	      0.00245107	      0.00859951	      0.00598227	     -0.00801790	      0.01935929	     -0.01836225	      0.00245107	      0.00859951	      0.00598227	      0.00054007	      0.01794681	     -0.00943039	      0.00389502	      0.00478208	      0.01583682	      0.00000000	      0.00747639	      0.00000000	     -0.00702086	     -0.03244551	     -0.00616288	      0.02042905	     -0.00088546	     -0.00938372	     -0.00087241	      0.01462333	     -0.00598227	      0.00240953	      0.02110412	     -0.01744829	     -0.00585764	      0.01267078	     -0.00535912	     -0.01221380	      0.02675404	     -0.02995290	     -0.02293204	      0.01416635	     -0.00718703	     -0.01520494	      0.03090840	     -0.03743074
      1.06666667	     -0.31465511	      0.13327306	     -0.13327306	      0.31465511	     -0.06371126	      0.51489199	      0.23144041	     -0.23144041	     -0.51489199	      0.06371126	    100.69842969	     74.49739527	     -1.75751915	    -34.36226738	     31.85758202	     82.63384501	      0.33140454	     -0.50382711	      0.35986721	     -0.25191355	     34.12742908	    -17.90226063	     -7.24016984	      9.49224595	     62.83456715	     13.12819153	     65.95184838	     56.43978908	     64.93090321	      4.91844485	     71.73680982	     44.56564659	     65.39287820	    -11.95857628	     74.69271841	     39.39310312	     66.03305862	    -14.06290014	     81.46220565	      5.50184764	      0.00095375	     -0.03125137	     -0.00488814	      0.01457491	     -0.01885427	     -0.00164455	      0.00144429	     -0.06884805	     -0.00670660	      0.01235306	     -0.18235012	     -0.00000465	     -0.00991604	      0.00339504	     -0.00065220	      0.00030292	      0.00012117	      0.00060584	      0.00038773	      0.00116320	      0.00065430	     -0.00001241	     -0.00020615	     -0.00024737	      0.00244186	      0.00856721	      0.00595980	     -0.00798778	      0.01928656	     -0.01829326	      0.00244186	      0.00856721	      0.00595980	      0.00053804	      0.01787939	     -0.00939496	      0.00388423	      0.00476412	      0.01580979	      0.00000000	      0.00741996	      0.00000000	     -0.00699448	     -0.03232362	     -0.00611600	      0.02068463	     -0.00090855	     -0.00973347	     -0.00086914	      0.01456839	     -0.00595980	      0.00240047	      0.02102484	     -0.01738274	     -0.00583563	      0.01262318	     -0.00533898	     -0.01216792	      0.02665354	     -0.02984037	     -0.02284589	      0.01411313	     -0.00716003	     -0.01514782	      0.03079228	     -0.03729012
      1.10000000	     -0.31354500	      0.13280286	     -0.13280286	      0.31354500	     -0.06348649	      0.51307544	      0.23062388	     -0.23062388	     -0.51307544	      0.06348649	    100.75702778	     74.23456651	     -1.75854188	    -34.96333445	     32.43339706	     83.56987084	      0.33045672	     -0.42502829	      0.35909455	     -0.21251414	     33.94295588	    -17.38869978	     -6.66736901	      9.86295326	     53.88731435	     13.18385810	     58.33578530	     53.17974796	     56.08390746	      5.78164443	     65.20274495	     42.27099570	     55.35775270	    -10.86365252	     67.82561668	     38.11049955	     54.61110831	    -14.09649567	     75.09062197	      5.51880682	      0.00097280	     -0.03131736	     -0.00489877	      0.01448435	     -0.01901069	     -0.00148805	      0.00137513	     -0.06889277	     -0.00678200	      0.01245975	     -0.18231919	      0.00001909	     -0.01002836	      0.00344557	     -0.00068079	      0.00028359	      0.00011344	      0.00056719	      0.00036300	      0.00108900	      0.00061256	     -0.00001232	     -0.00020851	     -0.00025021	      0.00243325	      0.00853698	      0.00593877	     -0.00795960	      0.01921852	     -0.01822873	      0.00243325	      0.00853698	      0.00593877	      0.00053614	      0.01781631	     -0.00936181	      0.00387410	      0.00474731	      0.01578432	      0.00000000	      0.00736736	      0.00000000	     -0.00696981	     -0.03220958	     -0.00607231	      0.02091351	     -0.00092980	     -0.01005791	     -0.00086607	      0.01451699	     -0.00593877	      0.00239200	      0.02095066	     -0.01732141	     -0.00581505	      0.01257865	     -0.00532015	     -0.01212499	      0.02655950	     -0.02973509	     -0.02276529	      0.01406334	     -0.00713477	     -0.01509437	      0.03068365	     -0.03715856
      1.13333333	     -0.31331084	      0.13270368	     -0.13270368	      0.31331084	     -0.06343907	      0.51269226	      0.23045164	     -0.23045164	     -0.51269226	      0.06343907	    100.66748101	     74.17912624	     -1.75697899	    -34.70094815	     32.71530399	     83.16321823	      0.32832037	     -0.36348262	      0.35734714	     -0.18174131	     33.98544814	    -16.46743933	     -6.50554701	     10.03830219	     45.42956485	     13.13497799	     48.32006890	     48.90742983	     47.53852060	      6.18394158	     56.61740246	     39.39497143	     45.11131110	     -9.48879268	     59.68764147	     35.81751150	     43.22086174	    -14.13313710	     66.12425081	      5.48933935	      0.00098212	     -0.03134967	     -0.00490397	      0.01452394	     -0.01908727	     -0.00155619	      0.00140518	     -0.06887334	     -0.00674924	      0.01241336	     -0.18233266	      0.00000869	     -0.00997956	      0.00342358	     -0.00066831	      0.00026125	      0.00010450	      0.00052250	      0.00033440	      0.00100321	      0.00056430	     -0.00001234	     -0.00020797	     -0.00024956	      0.00243143	      0.00853061	      0.00593434	     -0.00795366	      0.01920417	     -0.01821511	      0.00243143	      0.00853061	      0.00593434	      0.00053574	      0.01780301	     -0.00935482	      0.00387197	      0.00474376	      0.01577893	      0.00000000	      0.00735629	      0.00000000	     -0.00696460	     -0.03218553	     -0.00606312	      0.02081415	     -0.00092052	     -0.00991585	     -0.00086542	      0.01450615	     -0.00593434	      0.00239022	      0.02093502	     -0.01730848	     -0.00581070	      0.01256925	     -0.00531618	     -0.01211593	      0.02653967	     -0.02971289	     -0.02274828	      0.01405284	     -0.00712944	     -0.01508310	      0.03066073	     -0.03713081
      1.16666667	     -0.31195075	      0.13212761	     -0.13212761	      0.31195075	     -0.06316368	      0.51046665	      0.22945125	     -0.22945125	     -0.51046665	      0.06316368	    100.87501798	     73.85711258	     -1.76060120	    -35.73156282	     33.18902238	     83.84947909	      0.31811819	     -0.29104891	      0.34889910	     -0.14552446	     33.93304302	    -15.70693582	     -6.04643394	     10.38701522	     35.95473373	     13.08074529	     39.86608811	     44.18433769	     38.45414862	      6.40264870	     47.80932724	     35.88009878	     34.38096612	     -7.60122026	     51.14673202	     33.25332529	     31.58181814	    -14.13272717	     56.04710169	      5.50368501	      0.00099779	     -0.03140397	     -0.00491272	      0.01445692	     -0.01921596	     -0.00144107	      0.00135447	     -0.06890613	     -0.00680453	      0.01249167	     -0.18230990	      0.00002630	     -0.01006191	      0.00346071	     -0.00068942	      0.00022685	      0.00009074	      0.00045369	      0.00029036	      0.00087109	      0.00048999	     -0.00001231	     -0.00020863	     -0.00025036	      0.00242087	      0.00849358	      0.00590857	     -0.00791913	      0.01912080	     -0.01813604	      0.00242087	      0.00849358	      0.00590857	      0.00053341	      0.01772572	     -0.00931421	      0.00385952	      0.00472317	      0.01574746	      0.00000000	      0.00729216	      0.00000000	     -0.00693437	     -0.03204581	     -0.00600984	      0.02119912	     -0.00095707	     -0.01047792	     -0.00086167	      0.01444318	     -0.00590857	      0.00237984	      0.02084414	     -0.01723334	     -0.00578548	      0.01251469	     -0.00529310	     -0.01206334	      0.02642446	     -0.02958390	     -0.02264953	      0.01399183	     -0.00709850	     -0.01501763	      0.03052763	     -0.03696962
      1.20000000	     -0.31218835	      0.13222825	     -0.13222825	      0.31218835	     -0.06321179	      0.51085546	      0.22962601	     -0.22962601	     -0.51085546	      0.06321179	    100.69198793	     73.91336710	     -1.75740672	    -34.99827349	     33.47125864	     83.33737704	      0.32097047	     -0.19175757	      0.35127788	     -0.09587878	     33.76673089	    -15.27193669	     -5.21451329	     10.74902863	     26.31221629	     12.91196488	     33.26087613	     37.81908263	     29.31930182	      6.18760131	     39.95084666	     31.66842491	     24.05400428	     -6.00878560	     43.20321988	     30.60255822	     20.87085461	    -14.11755516	     45.91891529	      5.46353614	      0.00100713	     -0.03143632	     -0.00491793	      0.01450705	     -0.01929263	     -0.00152705	      0.00139231	     -0.06888167	     -0.00676327	      0.01243322	     -0.18232690	      0.00001312	     -0.01000046	      0.00343299	     -0.00067364	      0.00016541	      0.00006617	      0.00033083	      0.00021173	      0.00063519	      0.00035730	     -0.00001222	     -0.00021073	     -0.00025287	      0.00242272	      0.00850004	      0.00591307	     -0.00792516	      0.01913537	     -0.01814985	      0.00242272	      0.00850004	      0.00591307	      0.00053382	      0.01773922	     -0.00932130	      0.00386170	      0.00472677	      0.01575297	      0.00000000	      0.00730334	      0.00000000	     -0.00693965	     -0.03207022	     -0.00601913	      0.02092674	     -0.00093104	     -0.01007683	     -0.00086232	      0.01445418	     -0.00591307	      0.00238165	      0.02086001	     -0.01724647	     -0.00578989	      0.01252422	     -0.00529713	     -0.01207253	      0.02644458	     -0.02960643	     -0.02266679	      0.01400249	     -0.00710390	     -0.01502906	      0.03055088	     -0.03699778
